<?xml version="1.0" encoding="UTF-8"?>
<!DOCTYPE svg PUBLIC "-//W3C//DTD SVG 1.1//EN" "http://www.w3.org/Graphics/SVG/1.1/DTD/svg11.dtd">
<svg xmlns="http://www.w3.org/2000/svg" version="1.1" width="512px" height="512px" style="shape-rendering:geometricPrecision; text-rendering:geometricPrecision; image-rendering:optimizeQuality; fill-rule:evenodd; clip-rule:evenodd" xmlns:xlink="http://www.w3.org/1999/xlink">
<g><path style="opacity:0.984" fill="#000000" d="M 32.5,-0.5 C 55.1667,-0.5 77.8333,-0.5 100.5,-0.5C 100.5,10.5 100.5,21.5 100.5,32.5C 111.5,32.5 122.5,32.5 133.5,32.5C 133.5,55.1667 133.5,77.8333 133.5,100.5C 122.5,100.5 111.5,100.5 100.5,100.5C 100.5,111.5 100.5,122.5 100.5,133.5C 77.8333,133.5 55.1667,133.5 32.5,133.5C 32.5,122.5 32.5,111.5 32.5,100.5C 21.5,100.5 10.5,100.5 -0.5,100.5C -0.5,77.8333 -0.5,55.1667 -0.5,32.5C 10.5,32.5 21.5,32.5 32.5,32.5C 32.5,21.5 32.5,10.5 32.5,-0.5 Z"/></g>
<g><path style="opacity:0.991" fill="#000000" d="M 122.5,511.5 C 85.1667,511.5 47.8333,511.5 10.5,511.5C 10.5,396.167 10.5,280.833 10.5,165.5C 47.8333,165.5 85.1667,165.5 122.5,165.5C 122.5,280.833 122.5,396.167 122.5,511.5 Z"/></g>
<g><path style="opacity:0.988" fill="#000000" d="M 511.5,232.5 C 511.5,325.5 511.5,418.5 511.5,511.5C 474.167,511.5 436.833,511.5 399.5,511.5C 399.5,441.167 399.5,370.833 399.5,300.5C 388.5,300.5 377.5,300.5 366.5,300.5C 366.5,289.5 366.5,278.5 366.5,267.5C 344.5,267.5 322.5,267.5 300.5,267.5C 300.5,278.5 300.5,289.5 300.5,300.5C 289.5,300.5 278.5,300.5 267.5,300.5C 267.5,370.833 267.5,441.167 267.5,511.5C 229.833,511.5 192.167,511.5 154.5,511.5C 154.5,396.167 154.5,280.833 154.5,165.5C 188.167,165.5 221.833,165.5 255.5,165.5C 255.5,176.833 255.5,188.167 255.5,199.5C 266.5,199.5 277.5,199.5 288.5,199.5C 288.5,188.167 288.5,176.833 288.5,165.5C 340.833,165.5 393.167,165.5 445.5,165.5C 445.5,176.833 445.5,188.167 445.5,199.5C 456.5,199.5 467.5,199.5 478.5,199.5C 478.5,210.5 478.5,221.5 478.5,232.5C 489.5,232.5 500.5,232.5 511.5,232.5 Z"/></g>
</svg>
