<svg xmlns="http://www.w3.org/2000/svg" width="512" height="512" viewBox="0 0 512 512" version="1.1"><path d="" stroke="none" fill="#080404" fill-rule="evenodd"/><path d="M 33 16.500 L 33 33 16.500 33 L 0 33 0 67 L 0 101 16.500 101 L 33 101 33 117.500 L 33 134 67 134 L 101 134 101 117.500 L 101 101 117.500 101 L 134 101 134 67 L 134 33 117.500 33 L 101 33 101 16.500 L 101 0 67 0 L 33 0 33 16.500 M 11 339.500 L 11 512 67 512 L 123 512 123 339.500 L 123 167 67 167 L 11 167 11 339.500 M 155 339.500 L 155 512 211.500 512 L 268 512 268 406.500 L 268 301 284.500 301 L 301 301 301 284.500 L 301 268 334 268 L 367 268 367 284.500 L 367 301 383.500 301 L 400 301 400 406.500 L 400 512 456 512 L 512 512 512 372.500 L 512 233 495.500 233 L 479 233 479 216.500 L 479 200 462.500 200 L 446 200 446 183.500 L 446 167 367.500 167 L 289 167 289 183.500 L 289 200 272.500 200 L 256 200 256 183.500 L 256 167 205.500 167 L 155 167 155 339.500" stroke="none" fill="#040404" fill-rule="evenodd"/></svg>